<?xml version="1.0" encoding="UTF-8" standalone="no"?><!DOCTYPE svg PUBLIC "-//W3C//DTD SVG 1.1//EN" "http://www.w3.org/Graphics/SVG/1.1/DTD/svg11.dtd"><svg width="100%" height="100%" viewBox="0 0 11059 3540" version="1.1" xmlns="http://www.w3.org/2000/svg" xmlns:xlink="http://www.w3.org/1999/xlink" xml:space="preserve" xmlns:serif="http://www.serif.com/" style="fill-rule:evenodd;clip-rule:evenodd;stroke-linejoin:round;stroke-miterlimit:2;"><path d="M2951.998,2646.478c525.86,-171.435 752.119,-82.153 725.588,-152.966c-66.066,-176.333 -57.307,-178.501 -127.016,-353.271c-18.956,-47.525 28.355,-58.163 59.476,-100.883c60.493,-83.04 64.285,7.808 89.025,75.212c64.052,174.51 200.273,530.413 192.256,545.276c-8.897,16.496 -561.139,-66.072 -1133.81,177.267c-214.512,91.15 -495.807,286.326 -496.676,320.246c-2.683,104.729 201.003,-316.415 1101.287,-391.541c327.467,-27.326 6913.633,-5.202 7386.941,-12.343c69.785,-1.053 -13.575,-99.854 10.724,-122.012c11.427,-10.42 12.266,-1.537 74.531,30.151c199.951,101.759 264.124,119.384 199.856,150.069c-241.189,115.156 -236.571,123.706 -257.629,133.473c-69.146,32.072 50.947,-121.609 -28.193,-121.676c-6680.382,-5.648 -6679.253,-11.165 -7259.835,4.242c-619.507,16.439 -996.931,267.666 -999.479,273.363c-2.303,5.15 3.506,23.628 69.69,-10.804c577.177,-300.27 1416.948,-195.4 1424.661,-188.013c5.048,4.835 33.815,67.46 33.71,72.214c-0.784,35.496 -20.134,15.582 -105.26,10.158c-746.282,-47.552 -1547.325,284.208 -1612.054,424.417c-39.132,84.763 -188.746,138.734 -305.325,129.214c-245.06,-20.012 -207.421,-133.519 -340.768,-207.542c-810.37,-449.848 -1637.603,-334.342 -1645.713,-334.699c-16.743,-0.736 -10.748,-12.61 52.891,-177.981c4.184,-10.872 22.184,-56.026 133.074,-59.134c21.244,-0.595 527.302,-36.348 969.37,114.896c320.714,109.725 416.169,197.615 536.622,280.597c22.175,15.277 38.361,-5.988 13.15,-25.768c-351.523,-275.807 -695.758,-363.39 -761.765,-380.184c-700.842,-178.315 -868.424,6.389 -823.76,-128.713c7.121,-21.54 484.024,-1379.89 499.401,-1393.854c19.05,-17.299 223.813,-12.399 252.997,-9.005c8.227,0.957 83.338,77.808 -69.627,76.628c-97.252,-0.75 -92.643,24.602 -120.509,117.672c-29.831,99.634 -111.74,347.779 -121.697,377.943c-236.09,715.241 -267.259,743.521 -223.036,748.29c208.177,22.452 208.067,22.018 226.125,24.241c808.671,99.569 1212.036,570.824 1226.658,570.331c25.957,-0.876 -11.77,-42.637 -14.327,-45.466c-245.977,-272.277 -550.89,-427.123 -604.858,-454.53c-353.845,-179.694 -656.406,-218.868 -690.064,-226.974c-26.113,-6.288 -6.235,-20.303 118.401,-377.57c144.567,-414.397 138.596,-424.729 160.888,-427.963c4.339,-0.629 79.544,21.648 82.84,24.363c40.197,33.115 -184.913,652.172 -181.137,687.544c1.693,15.858 163.022,42.184 394.584,140.779c645.481,274.834 901.792,792.451 937.923,878.784c23.567,56.312 34.929,-0.993 46.316,-20.008c262.05,-437.582 818.958,-634.552 903.549,-664.47Zm-2508.105,236.615c830.086,8.875 1095.153,299.579 1024.004,192.868c-27.753,-41.625 -359.308,-152.857 -432.698,-169.664c-66.135,-15.145 -489.244,-112.042 -844.272,-80.312c-34.472,3.081 -62.2,71.126 -15.101,67.835c115.023,-8.037 114.12,-9.741 268.068,-10.726Z" style="fill:#1a1341;"/><path d="M1641.09,2239.368c525.153,-177.582 926.792,-234.329 1130.903,-331.888c349.028,-166.826 25.217,-281.592 -126.012,-362.562c-452.967,-242.523 -271.129,-489.699 81.386,-615.343c551.643,-196.618 733.925,-151.578 1129.118,-576.375c62.735,-67.434 -112.999,-54.598 -93.85,-96.509c2.547,-5.575 3.846,-4.284 61.694,-36.34c229.822,-127.358 337.844,-206.198 330.267,-136.198c-39.5,364.892 -33.871,365.605 -42.324,396.352c-21.369,77.728 -74.943,-139.312 -135.885,-48.052c-349.934,524.022 -905.43,566.926 -1089.89,687.059c-342.238,222.89 519.707,305.328 696.731,560.667c227.022,327.456 -412.331,557.207 -755.417,747.043c-768.396,425.168 -747.365,841.456 -805.083,842.514c-12.386,0.227 -27.074,-69.259 -32.961,-81.807c-110.238,-234.978 -220.389,-331.868 -242.466,-359.827c-24.705,-31.287 97.98,-130.155 96.94,-150.408c-4.25,-82.807 -115.058,126.973 -154.293,92.08c-395.774,-351.973 -445.652,-291.465 -465.155,-332.859c-9.069,-19.249 171.491,-109.827 219.193,-128.461c42.512,-16.607 64.654,142.955 82.205,189.114c5.737,15.089 14.055,6.076 15.761,6.813c3.666,-3.861 7.332,-7.722 10.998,-11.583c4.009,-21.088 39.865,-209.702 88.141,-253.429Z" style="fill:#baff29;"/><ellipse cx="2989.321" cy="1529.939" rx="69.935" ry="68.27" style="fill:#1a1341;"/><ellipse cx="2329.111" cy="2326.301" rx="64.602" ry="62.771" style="fill:#1a1341;"/><path d="M1575.887,858.204c0.111,0.52 77.24,354.196 84.101,395.246c0.54,3.234 7.057,42.225 34.021,22.85c13.691,-9.838 159.411,-114.547 169.546,-125.147c12.713,-13.296 23.038,-45.25 -191.853,-126.762c-35.898,-13.617 -48.964,-114.7 -15.552,-110.334c158.695,20.737 267.569,142.08 324.358,143.542c3.345,1.814 17.587,-18.452 20.672,11.21c0.883,8.492 -3.331,7.097 -2.429,15.769c14.042,42.2 19.217,37.874 45.82,75.316c66.289,93.295 60.407,96.312 95.746,205.382c37.709,116.385 -92.343,57.945 -102.429,29.566c-5.907,-16.622 -53.562,-150.707 -100.398,-196.321c-22.699,-22.107 -56.491,39.949 -130.113,151.915c-45.605,69.357 14.09,56.218 44.919,63.805c455.699,112.141 469.109,87.378 491.763,120.966l-12.64,11.21c-38.767,4.664 -544.165,95.533 -547.155,116.93c-1.593,11.402 -1.691,12.105 73.67,123.623c32.222,47.681 9.105,82.127 66.446,76.522c45.481,-4.445 107.181,-219.392 140.54,-228.842c67.244,-19.048 97.092,-7.614 75.299,58.021c-39.163,117.952 -33.123,121.63 -110.263,218.679c-24.732,31.116 -52.722,32.317 -18.078,90.04l-17.394,14.055c-59.922,-37.593 -87.192,20.234 -143.48,51.989c-13.698,7.728 -294.621,166.21 -195.124,-23.986c4.778,-9.134 245.63,-97.442 205.05,-135.435c-2.1,-1.967 -168.975,-126.992 -177.186,-129.21c-27.257,-7.364 -28.841,85.192 -115.314,447.28c-10.035,42.021 -7.56,41.065 -14.36,98.085l-20.501,11.99c-129.864,-530.115 -103.271,-579.002 -142.698,-555.53c-197.459,117.551 -181.196,147.423 -166.498,158.473c129.643,97.461 196.747,42.399 216.215,175.496c7.567,51.733 -173.046,-5.121 -296.024,-108.571c-37.845,-31.835 -49.822,21.929 -72.156,-0.533c-5.773,-5.806 -1.789,-5.968 10.999,-30.947c17.11,-33.42 -34.242,-31.179 -110.162,-195.905c-16.915,-37.726 -14.447,-37.669 -38.2,-114.92c-2.062,-6.707 -18.698,-66.388 84.547,-23.329c28.013,11.683 110.108,274.636 153.5,216.852c128.022,-170.483 124.975,-179.255 118.943,-196.621c-3.101,-8.926 -6.4,-5.428 -114.605,-28.584c-434.183,-92.915 -451.015,-84.204 -445.91,-106.092c1.323,-5.671 555.852,-109.063 563.365,-127.496c8.651,-21.223 -2.536,-20.013 -42.285,-77.118c-85.815,-123.282 -80.48,-127.048 -91.948,-133.035c-22.078,-11.526 -89.333,124.55 -93.751,137.388c-22.546,65.511 -5.007,97.547 -115.59,111.416c-14.536,1.823 -31.946,-6.918 5.727,-124.392c40.475,-126.212 145.88,-201.032 115.409,-240.107c-32.675,-41.901 11.197,-27.709 16.716,-23.77c64.336,45.921 51.024,-50.532 300.619,-127.827c84.953,-26.308 48.348,63.335 48.233,64.123c-8.281,56.801 -60.174,24.3 -214.691,133.073c-34.093,24 41.856,64.356 146.91,141.32c60.335,44.202 46.433,-18.792 83.231,-175.978c61.804,-263.997 74.071,-357.367 80.221,-358.86c24.591,-5.968 11.838,13.187 42.2,133.522Zm-35.754,29.398c-12.544,35.43 -21.259,31.439 -34.142,113.831c-57.582,368.263 -99.15,376.663 -54.573,429.723c5.108,6.079 55.988,66.641 65.855,74.257c20.39,15.739 18.328,-49.208 18.184,-53.745c-8.99,-283.17 -4.262,-281.751 4.675,-564.066Zm-28.193,661.898c-44.874,-23.963 -62.924,-15.251 -406.535,-19.561c-67.725,-0.85 -224.152,4.757 -163.159,15.719c35.819,6.438 35.067,5.641 446.136,88.891c41.802,8.466 115.66,-76.015 123.558,-85.049Zm51.981,-33.124c1.97,0.81 5.421,8.782 21.314,8.765c158.338,-0.173 157.519,-4.673 466.171,3.403c50.698,-4.304 49.57,1.006 104.186,-5.214c-30.584,-10.611 -35.283,-10.875 -66.826,-16.146c-207.621,-34.697 -197.217,-53.148 -404.11,-85.881c-26.149,-4.137 -95.443,55.948 -120.735,95.074Zm-6.116,50.881l-12.128,11.59c0.056,3.048 10.411,270.71 -6.134,536.944l17.364,-3.237c13.595,-23.717 82.19,-399.954 88.558,-434.883c2.717,-14.903 2.73,-17.238 -76.156,-109.976l-11.505,-0.438Z" style="fill:#1a1341;"/><path d="M9896.336,2127.488c-6.322,28.107 -41.151,384.06 -443.458,318.253c-361.406,-59.116 -355.375,-832.419 180.976,-748.091c131.178,20.625 197.159,120.659 208.142,137.311c62.098,94.149 55.269,268.742 54.339,292.526Zm-495.041,84.097c113.232,372.55 408.04,80.386 293.156,-309.797c-68.587,-232.943 -352.456,-172.844 -302.175,254.926c2.164,18.409 6.855,36.463 9.019,54.872Z" style="fill:#1a1341;"/><path d="M4625.871,2192.968c36.009,-132.349 31.045,-132.193 69.084,-264.126c62.231,-215.841 66.941,-226.274 104.747,-226.682c235.807,-2.54 307.88,-12.835 282.27,59.668c-13.987,39.599 -95.803,-6.349 -88.401,70.706c3.984,41.478 47.785,497.455 64.861,516.807c14.555,16.495 88.757,15.399 70.605,76.991c-7.001,23.755 -16.512,12.403 -216.449,16.149c-76.27,1.429 -121.764,25.545 -103.642,-47.76c10.446,-42.253 86.336,-2.497 77.358,-83.432c-27.374,-246.784 -31.814,-245.499 -44.784,-492.999c-5.972,-113.964 -23.266,24.574 -59.523,153.939c-9.518,33.959 -113.458,404.817 -124.858,422.789c-15.725,24.791 -123.55,21.58 -132.66,-2.311c-16.705,-43.811 -183.928,-598.197 -189.93,-598.356c-30.167,-0.798 0.757,22.144 -31.306,375.913c-12.214,134.764 -19.475,181.805 18.608,193.165c6.913,2.062 98.936,29.514 53.084,72.9c-5.43,5.138 -260.087,22.389 -275.198,-13.488c-25.203,-59.839 74.052,-43.343 81.391,-96.996c5.55,-40.572 61.555,-450.014 62.288,-508.068c0.574,-45.445 -119.099,-19.514 -99.749,-97.014c8.138,-32.595 309.485,-23.955 324.166,-7.208c13.499,15.399 112.076,341.089 134.588,442.844c5.191,23.462 3.144,25.115 23.45,36.57Z" style="fill:#1a1341;"/><path d="M1980.396,859.519c121.46,-133.726 416.26,-426.647 453.027,-463.181c60.71,-60.323 81.023,-35.623 254.158,107.55c67.517,55.833 80.36,16.873 212.162,-120.798c171.925,-179.582 346.371,-382.587 377.567,-383.09c44.959,-0.725 410.505,415.511 411.829,421.829c14.496,69.162 -60.607,-3.173 -167.756,-76.599c-208.243,-142.703 -186.112,-167.692 -216.123,-190.17c-16.671,-12.486 -29.528,2.43 -86.786,182.142c-15.186,47.664 12.619,37.644 61.166,51.47c53.154,15.138 21.656,36.62 -18.711,73.764c-255.678,235.26 -243.001,248.387 -268.485,264.5c-85.13,53.826 119.334,-221.184 75.246,-237.546c-81.076,-30.088 -53.931,47.874 -425.258,341.224c-107.86,85.21 31.038,-99.996 26.216,-125.335c-2.213,-11.626 -146.247,-130.752 -155.486,-137.404c-66.558,-47.925 -551.209,415.457 -600.294,385.02c-18.992,-11.777 35.671,-58.011 67.529,-93.376Z" style="fill:#baff29;"/><path d="M6641.291,1874.877c-3.754,210.506 -106.74,176.669 -112.996,223.87c-0.123,0.932 134.278,242.669 147.353,253.767c37.159,31.538 63.323,22.896 48.718,70.381c-5.816,18.91 -18.402,19.565 -20.683,19.683c-184.489,9.588 -188.642,-12.412 -217.651,-72.047c-70.64,-145.216 -101.707,-269.606 -206.447,-243.515c-28.452,7.087 -29.75,221.122 3.427,233.876c51.466,19.786 77.658,9.805 65.519,62.859c-5.494,24.012 -40.04,19.62 -280.073,18.099c-6.115,-0.039 -81.765,-0.518 -44.644,-62.044c10.676,-17.694 70.862,2.171 71.132,-68.346c1.852,-484.588 18.003,-492.945 -12.659,-521.221c-12.915,-11.91 -68.676,1.492 -66.655,-56.64c1.48,-42.589 24.92,-26.6 278.107,-34.516c249.71,-7.808 310.912,22.606 347.553,175.795Zm-258.309,-96.191l-13.108,-3.198c-30.195,-3.133 -63.31,-20.133 -94.568,5.251c-23.511,19.093 -20.15,147.848 -13.876,219.084c1.609,18.266 5.188,27.139 6.462,36.015c2.644,18.426 35.264,20.628 47.495,19.919c0,0 57.053,1.266 75.871,-11.717c3.162,-2.182 6.421,-3.386 9.277,-5.108c4.479,-2.701 8.296,-5.692 11.706,-8.186c7.188,-5.256 12.594,-10.461 16.349,-14.612c3.855,-4.262 7.972,-8.435 10.579,-12.268c3.461,-5.091 12.79,-21.469 12.79,-21.469c40.192,-54.784 35.896,-174.572 -68.977,-203.711Z" style="fill:#1a1341;"/><path d="M8850.395,2269.201c-0.393,-41.955 8.54,-157.64 -20.302,-164.72c-17.008,-4.175 -219.076,-1.118 -238.123,-0.83c-43.083,0.652 -30.428,93.984 -30.28,207.822c0.102,78.891 102.397,40.995 78.2,115.086c-9.011,27.592 -312.191,24.614 -320.209,-0.663c-22.17,-69.896 77.381,-42.497 77.795,-100.254c0.292,-40.609 3.283,-457.186 -1.938,-507.618c-5.805,-56.074 -105.508,-25.143 -76.823,-101.013c8.277,-21.892 309.266,-28.373 322.413,4.271c21.416,53.178 -13.853,40.952 -64.374,67.179c-14.166,7.354 -22.4,11.628 -14.622,198.973c0.9,21.69 9.325,30.856 255.177,27.555c37.381,-0.502 36.767,-52.167 31.484,-197.133c-1.89,-51.876 -102.76,-25.061 -77.514,-99.988c8.298,-24.626 313.294,-28.309 321.448,3.066c18.842,72.505 -67.311,52.928 -76.524,83.579c-11.675,38.841 -4.742,39.86 -1.626,506.964c0.499,74.827 65.665,33.772 78.937,85.357c14.45,56.166 -43.305,45.948 -290.316,46.199c-2.983,0.003 -27.892,0.028 -33.247,-16.87c-16.078,-50.741 9.654,-44.564 58.663,-64.597c19.036,-7.781 21.535,-84.779 21.781,-92.367Z" style="fill:#1a1341;"/><path d="M10089.378,2015.509c-0.256,-147.357 11.041,-218.561 -30.267,-229.956c-90.007,-24.83 -61.531,-83.578 -1.23,-83.957c149.317,-0.938 184.842,-0.084 196.914,4.525c19.384,7.399 309.141,463.012 315.845,474.77c1.582,2.775 37.779,66.265 35.871,17.533c-13.735,-350.94 -1.94,-350.879 -6.467,-381.028c-8.115,-54.042 -105.78,-16.355 -86.586,-96.698c6.906,-28.906 258.302,-31.298 270.728,0.274c21.037,53.449 -13.318,42.549 -64.484,67.779c-34.221,16.874 -5.016,582.499 -15.414,635.041c-1.966,9.936 -5.309,26.826 -124.515,22.917c-36.015,-1.181 -27.696,-15.87 -133.073,-173.628c-244.813,-366.506 -234.979,-410.245 -261.157,-383.894c-6.552,6.596 5.966,402.077 7.072,437.026c1.856,58.62 123.828,22.691 96.832,100.843c-10.144,29.366 -268.314,14.119 -272.906,10.001c-49.119,-44.039 33.651,-71.277 40.001,-73.366c40.821,-13.433 33.069,-28.724 32.837,-348.183Z" style="fill:#1a1341;"/><path d="M5725.243,1918.606c149.472,409.505 139.978,418.363 172.187,437.837c42.446,25.664 66.785,18.98 51.878,66.794c-6.928,22.224 -14.227,25.607 -290.254,20.59c-7.521,-0.137 -80.822,-43.287 14.927,-75.313c38.225,-12.785 12.096,-128.036 -42.51,-128.206c-172.433,-0.536 -214.221,-5.591 -227.338,28.231c-2.719,7.01 -32.91,84.861 -9.526,93.503c49.361,18.244 71.882,13.78 57.031,63.453c-5.594,18.71 -11.264,26.996 -243.481,17.357c-39.798,-1.652 -31.305,-57.207 -10.939,-69.85c73.979,-45.925 54.905,-63.47 186.041,-426.206c52.007,-143.856 51.456,-142.596 55.996,-154.972c21.586,-58.846 5.483,-92.961 93.499,-94.015c9.022,-0.108 102.77,-1.231 112.514,7.839c14.66,13.646 78.313,208.25 79.976,212.956Zm-183.397,-82.305c-4.875,-0.333 -12.935,0.288 -17.81,0.541c-9.033,0.469 1.138,7.208 -28.59,109.386c-56.572,194.444 -60.605,199.134 -46.778,209.291c2.703,1.986 180.192,15.519 183.19,-13.125c2.099,-20.052 -15.464,-26.84 -86.648,-294.845l-3.364,-11.248Z" style="fill:#1a1341;"/><path d="M6976.07,1946.872c1.648,-4.573 74.181,-225.661 93.113,-241.736c14.067,-11.944 148.43,-6.962 157.021,-5.244c30.253,6.05 183.355,492.468 234.2,613.125c31.993,75.921 104.69,46.825 81.003,114.509c-8.249,23.57 -312.737,26.522 -321.143,-1.83c-19.876,-67.04 77.939,-48.864 68.878,-85.413c-37.536,-151.396 -91.757,-100.937 -248.024,-99.922c-58.469,0.38 -62.258,81.137 -63.823,86.918c-14.29,52.789 58.185,32.474 66.923,68.091c13.383,54.551 -29.546,49.381 -243.022,47.571c-45.562,-0.386 -38.834,-55.659 -11.449,-70.435c78.888,-42.566 53.76,-68.314 136.153,-287.574c25.054,-66.671 46.27,-126.975 50.17,-138.061Zm139.298,-112.026c-47.779,228.103 -117.298,322.649 -60.377,323.679c106.898,1.934 176.01,9.336 166.507,-29.52c-29.149,-119.18 -50.455,-179.383 -83.11,-282.006c-4.884,-15.349 -7.398,-11.814 -23.02,-12.154Z" style="fill:#1a1341;"/><path d="M7540.697,1916.968c4.759,-159.464 -7.071,-214.76 50.266,-214.932c48.53,-0.145 565.798,-1.693 606.622,0.542c30.544,1.672 25.359,114.872 27.671,171.901c3.24,79.924 22.981,116.651 -56.368,112.51c-47.669,-2.488 -53.603,-117.92 -64.223,-170.399c-10.685,-52.8 -130.961,-41.726 -137.581,-13.807c-2.583,10.892 -0.653,468.019 -0.482,508.716c0.356,84.393 121.532,32.054 133.122,84.282c10.686,48.153 -8.951,47.081 -57.811,46.796c-333.377,-1.945 -359.431,6.769 -366.267,-18.372c-21.628,-79.547 119.933,-37.396 122.801,-98.859c0.813,-17.41 -0.288,-516.56 -0.65,-520.884c-2.755,-32.93 -91.45,-21.537 -94.617,-21.321c-71.708,4.898 -44.805,182.961 -85.637,200.549c-64.794,27.909 -75.945,2.994 -76.846,-66.723Z" style="fill:#1a1341;"/><path d="M8092.383,1240.019c2.116,43.158 -29.39,76.605 46.259,105.611c26.72,10.245 40.151,59.712 -12.159,60.241c-148.056,1.496 -242.428,13.56 -229.18,-40.082c6.15,-24.903 59.78,-17.95 60.841,-55.122c0.989,-34.639 11.528,-403.741 -6.405,-433.121c-0.662,-1.085 -91.886,-37.642 -47.902,-70.229c17.049,-12.631 18.801,-7.015 264.974,-11.636c284.02,-5.332 261.209,225.966 167.227,301.11c-59.779,47.797 -3.565,56.925 38.038,146.033c28.358,60.739 19.573,67.943 73.368,102.826c25.427,16.488 25.865,59.533 -10.943,60.328c-43.48,0.939 -127.027,23.548 -164.548,-55.256c-40.655,-85.387 -74.448,-226.276 -158.682,-202.588c-28.089,7.899 -15.473,18.643 -20.89,91.884Zm0.314,-338.281c-0.026,78.31 -8.743,183.473 18.528,187.814c205.22,32.666 182.685,-288.882 1.647,-228.9c-24.791,8.214 -19.505,36.159 -20.175,41.086Z" style="fill:#1a1341;"/><path d="M4766.975,1014.531c-0.132,-47.025 12.622,-134.392 -24.969,-151.276c-30.557,-13.724 -42.663,-11.826 -34.663,-44.155c6.747,-27.268 253.778,-28.537 261.86,-1.982c12.155,39.936 -50.963,50.626 -56.288,56.881c-3.296,3.872 -40.315,182.633 27.795,182.9c62.298,0.244 173.182,1.864 181.087,-3.848c20.604,-14.887 9.679,-163.523 8.503,-167.454c-4.705,-15.735 -98.912,-53.868 -47.808,-80.876c12.265,-6.482 229.245,-4.444 238.772,-1.442c62.461,19.685 -44.417,67.264 -49.956,85.54c-2.21,7.294 -0.929,420.15 -0.869,421.327c2.751,54.009 70.238,16.848 65.417,70.995c-1.708,19.186 -7.325,34.55 -239.592,23.787c-25.896,-1.2 -41.295,-44.728 1.231,-60.594c27.734,-10.347 42.118,-14.133 36.44,-188.721c-1.454,-44.697 -104.003,-32.463 -193.277,-32.453c-50.554,0.006 -37.608,88.676 -36.234,173.216c1.047,64.412 56.908,36.692 64.636,70.586c12.116,53.144 -89.13,39.626 -225.625,38.528c-59.577,-0.479 -45.348,-47.851 -12.165,-60.695c46.549,-18.018 35.853,-33.963 35.704,-330.264Z" style="fill:#1a1341;"/><path d="M10024.902,1211.018c-12.877,-80.378 -6.424,-208.701 -7.934,-309.267c-0.638,-42.497 -59.809,-41.177 -68.057,-58.335c-27.687,-57.594 114.361,-43.193 179.504,-41.695c47.309,1.088 34.602,51.746 15.103,59.793c-49.608,20.474 -45.745,29.05 -45.684,82.529c0.505,441.741 7.532,461.575 -26.163,462.582c-95.074,2.843 -99.892,-5.077 -151.191,-84.287c-225.189,-347.702 -217.212,-387.898 -241.949,-363.256c-7.883,7.852 5.168,324.47 6.33,352.663c1.85,44.876 79.08,18.633 76.217,69.284c-2.549,45.091 -208.349,24.553 -214.608,18.831c-51.802,-47.352 53.439,-37.024 54.035,-103.436c3.611,-402.242 11.895,-414.368 -19.563,-427.97c-99.987,-43.235 -22.207,-67.172 -16.658,-67.381c180.442,-6.79 180.229,10.577 194.986,31.954c156.074,226.075 227.699,356.588 245.396,388.835c4.999,0.441 5.885,9.962 10.885,10.403c0,0 8.604,-19.547 9.352,-21.246Z" style="fill:#1a1341;"/><path d="M8995.576,1210.41c-12.356,-111.408 -5.008,-205.653 -9.92,-308.541c-2.017,-42.242 -56.843,-31.777 -68.303,-57.109c-26.631,-58.869 123.142,-43.206 181.943,-42.426c5.668,0.075 87.984,23.401 -15.437,69.154c-34.708,15.355 -5.059,489.17 -17.635,521.575c-8.645,22.276 -101.309,13.725 -106.438,11.535c-31.244,-13.342 -277.407,-421.294 -278.318,-423.508c-0.98,-2.382 -35.07,-85.264 -31.089,-8.379c10.939,211.287 -2.604,210.328 4.709,337.369c2.586,44.917 83.777,20.239 79.968,71.214c-3.248,43.454 -214.739,29.383 -222.319,11.018c-17.758,-43.028 43.31,-55.153 46.986,-58.45c27.228,-24.42 11.072,-397.863 9.576,-432.434c-1.887,-43.627 -33.508,-30.925 -53.192,-51.608c-60.461,-63.53 159.078,-50.486 174.516,-48.66c49.146,5.814 265.787,378.839 285.792,419.826c4.535,0.302 5.535,8.891 10.07,9.193c0,0 8.364,-18.187 9.091,-19.769Z" style="fill:#1a1341;"/><path d="M7420.07,1344.228c4.322,1.785 52.098,21.517 29.254,50.607c-14.604,18.598 -206.038,17.45 -211.243,0.606c-14.123,-45.696 41.649,-51.681 51.064,-73.528c56.386,-130.844 158.011,-514.762 202.699,-520.978c94.463,-13.14 113.944,-18.054 146.484,70.607c154.082,419.823 152.706,454.692 177.961,467.543c39.587,20.144 61.123,25.208 31.545,59.16c-11.348,13.025 -237.547,13.334 -245.01,-1.347c-28.525,-56.117 59.866,-37.173 46.733,-86.888c-21.333,-80.759 -61.325,-74.796 -185.494,-69.162c-32.069,1.455 -51.862,-2.159 -65.19,70.64c-3.724,20.339 4.267,16.798 21.199,32.74Zm108.829,-424.852c-3.569,-2.061 -14.449,-0.913 -18.901,-0.033c-13.505,2.669 5.518,12.39 -44.172,166.305c-2.091,6.476 -24.237,75.075 -15.551,83.637c7.479,7.372 143.197,17.822 145.979,-13.099c1.675,-18.617 -7.704,-16.365 -62.808,-224.595c0,0 -0.979,-10.154 -4.548,-12.215Z" style="fill:#1a1341;"/><path d="M10480.365,1415.775c-20.098,-2.344 -160.926,-18.767 -221.992,-121.213c-67.919,-113.943 -44.597,-252.57 -36.256,-281.236c80.273,-275.852 364.61,-221.629 485.364,-200.863c34.466,5.927 38.177,163.063 -1.675,168.286c-109.587,14.36 -63.37,-83.68 -111.755,-108.134c-268.95,-135.924 -331.424,481.725 -71.03,481.648c132.352,-0.039 96.109,-176.814 57.506,-188.078c-5.604,-1.635 -66.66,-19.45 -51.93,-51.274c7.89,-17.046 12.637,-20.061 234.179,-16.988c35.699,0.495 33.339,48.731 15.067,59.186c-60.735,34.751 -37.308,62.115 -39.817,181.899c-1.673,79.851 -236.156,77.028 -257.663,76.769Z" style="fill:#1a1341;"/><path d="M6984.925,1344.739c84.223,-4.517 84.572,-0.807 97.54,-8.393c22.632,-13.241 17.018,-17.854 49.472,-78.98c11.626,-21.896 11.573,-25.542 36.947,-22.937c65.425,6.715 37.181,94.799 34.25,118.918c-9.099,74.872 -42.188,52.579 -77.428,52.778c-381.759,2.153 -388.642,14.896 -410.413,-9.693c-31.022,-35.038 44.51,-55.362 52.642,-73.703c17.372,-39.18 3.256,-387.131 1.892,-420.765c-1.837,-45.287 -99.012,-61.537 -50.507,-95.549c18.499,-12.971 373.954,-5.916 406.468,-5.27c36.868,0.732 35.14,22.842 43.235,114.718c4.24,48.123 -59.579,40.289 -71.556,14.159c-3.351,-7.31 5.112,-85.437 -168.368,-65.954c-27.869,3.13 -23.005,80.853 -22.584,136.425c0.483,63.824 16.334,69.12 78.97,62.057c53.459,-6.028 25.758,-73.787 83.699,-61.488c20.503,4.352 19.325,103.19 19.216,112.304c-1.394,116.874 -53.462,72.594 -58.333,67.387c-20.818,-22.258 -6.752,-56.083 -101.373,-51.02c-15.813,0.846 -42.694,2.284 -20.125,196.924c2.564,22.113 12.429,12.445 76.356,18.083Z" style="fill:#1a1341;"/><path d="M5673.899,1344.882c75.825,-4.991 93.926,21.111 130.917,-46.143c26.101,-47.456 13.608,-65.724 52.75,-64.851c65.551,1.461 44.045,103.383 37.178,146.437c-4.33,27.149 -10.587,25.841 -37.772,25.841c-443.474,-0.012 -444.772,-7.132 -448.651,-12.385c-29.628,-40.121 55.116,-48.112 56.59,-82.878c1.386,-32.703 10.118,-238.699 -1.19,-409.151c-3.791,-57.152 -78.958,-32.553 -59.99,-85.492c11.1,-30.979 24.517,-18.856 411.039,-15.91c53.715,0.409 48.377,85.325 50.53,115.853c0.536,7.604 -33.494,96.868 -90.499,-29.817c-4.5,-10.001 -16.413,-29.051 -143.168,-22.928c-44.884,2.168 -32.269,99.52 -31.677,165.332c0.378,42.039 35.863,41.17 89.092,32.75c33.059,-5.229 16.17,-67.814 69.182,-60.383c13.44,1.884 38.408,5.383 24.041,167.927c-0.23,2.603 -1.688,19.099 -24.187,21.963c-50.182,6.386 -37.794,-56.881 -70.87,-60.084c-126.347,-12.235 -89.174,52.662 -87.122,179.768c0.749,46.431 48.028,34.022 73.808,34.152Z" style="fill:#1a1341;"/><path d="M4502.688,1345.423c4.61,1.416 55.084,16.922 37.491,47.208c-13.784,23.729 -322.506,16.796 -334.018,3.645c-42.75,-48.835 89.159,-45.113 91.019,-84.995c0.898,-19.259 1.531,-415.109 0.108,-424.743c-0.734,-4.966 -90.845,-77.919 -113.199,44.233c-14.548,79.5 0.283,128.491 -75.624,99.095c-25.811,-9.996 -16.399,-219.281 14.69,-226.528c8.242,-1.921 480.336,-4.709 493.562,-0.965c27.824,7.877 39.369,220.91 15.035,229.152c-51.889,17.575 -61.074,-24.278 -62.257,-29.667c-22.606,-103.006 -3.655,-152.289 -107.497,-135.706c-27.04,4.318 -24.331,17.446 -24.083,416.339c0.033,53.421 11.319,53.901 64.773,62.931Z" style="fill:#1a1341;"/><path d="M6211.409,1344.238c31.529,-16.257 34.455,-24.906 29.022,-442.469c-0.733,-56.326 -79.942,-34.523 -61.056,-85.348c8.731,-23.496 264.321,-24.012 272.737,-0.586c16.379,45.588 -62.837,54.872 -68.647,62.013c-15.399,18.927 -7.013,445.467 -6.319,447.442c6.33,18.016 117.835,11.357 128.101,10.744c48.451,-2.893 63.957,-97.938 75.337,-136.191c8.759,-29.441 66.835,-15.55 75.258,-9.721c17.413,12.051 -11.634,199.907 -13.285,202.872c-11.883,21.352 -448.908,18.885 -462.198,2.761c-21.654,-26.273 26.71,-49.438 31.05,-51.517Z" style="fill:#1a1341;"/><path d="M2293.092,2364.628c-16.241,-28.196 -27.088,-31.571 -6.187,-55.934c21.547,-25.117 38.806,12.259 387.149,-145.689c83.191,-37.721 64.327,-103.687 151.691,-75.921c42.699,13.57 259.444,-101.945 307.102,-133.663c142.095,-94.567 88.463,-115.26 88.16,-140.305c-0.026,-2.163 3.645,-18.726 4.702,-20.512c67.526,-114.1 -195.537,-225.788 -215.532,-224.813c-61.235,2.986 -51.961,-18.586 -73.562,-44.207c-14.665,-17.395 -348.471,-123.211 -351.52,-297.501c-3.159,-180.587 297.036,-241.019 372.141,-303.609c42.536,-35.448 87.064,73.733 10.037,63.34c-78.1,-10.538 -264.91,86.71 -319.653,159.422c-20.337,27.012 -124.514,165.385 265.603,328.765c67.567,28.297 87.944,-11.334 110.835,33.662c31.088,61.109 106.028,49.382 208.604,157.726c18.696,19.748 35.282,57.135 54.121,87.69c14.503,23.523 28.655,39.104 22.032,60.352c-14.65,47.003 -112.516,133.927 -135.175,153.226c-104.258,88.799 -115.729,69.539 -301.555,153.733c-22.185,10.051 -27.327,50.83 -36.386,60.316c-44.04,46.115 -92.848,0.257 -107.952,0.811c-32.633,1.198 -308.792,124.354 -335.228,136.144c-53.461,23.841 -41.591,65.777 -99.425,46.965Z" style="fill:#1a1341;"/><path d="M9260.294,1099.127c-0.086,-136.485 3.106,-210.112 -8.584,-223.129c-6.643,-7.397 -73.293,-16.731 -56.733,-60.23c10.639,-27.948 419.577,-35.748 213.547,56.564c-6.986,3.13 -13.643,4.489 -12.981,424.18c0.101,64.135 72.831,27.263 68.952,84.471c-1.296,19.117 -7.015,33.869 -238.231,24.786c-5.408,-0.212 -93.647,-27.857 14.307,-66.118c25.479,-9.03 22.539,-46.077 19.723,-240.524Z" style="fill:#1a1341;"/><path d="M3147.14,1342.886c-17.642,-20.565 -26.476,-19.442 -22.512,-46.52c9.24,-63.121 32.93,-58.879 96.119,-75.325c14.641,-3.811 89.474,-54.123 92.764,-94.17c11.699,-142.422 114.122,-80.821 132.01,-55.302c12.481,17.805 24.853,152.334 140.899,121.72c81.279,-21.442 189.409,-223.401 188.916,-235.325c-6.598,-159.544 123.623,-96.706 137.223,-56.464c21.44,63.445 -77.882,85.353 -77.882,85.353c0,0 -24.712,25.594 -30.405,32.404c-145.062,173.497 -142.705,212.739 -141.39,234.614c5.987,99.637 -116.225,107.427 -135.781,29.655c-36.162,-143.814 -233.393,-116.464 -261.374,13.337c-2.057,9.543 -32.624,102.771 -118.584,46.024Z" style="fill:#1a1341;"/><path d="M2352.395,830.443c6.979,-104.514 123.474,-129.186 142.872,1.489c6.093,41.044 82.893,75.519 79.803,98.87c-0.978,7.392 -12.738,44.77 -89.256,-26.861c-39.179,-36.677 -92.419,-2.556 -94.6,-0.225c-96.87,103.508 -88.525,165.398 -86.378,181.321c12.415,92.072 -139.104,109.699 -138.438,27.491c0.631,-77.764 58.215,-64.347 97.609,-96.341c8.881,-7.213 12.891,-22.504 19.58,-35.141c58.515,-110.546 78,-104.656 68.807,-150.604Z" style="fill:#1a1341;"/><path d="M3954.317,366.4c-254.451,334.962 -518.774,453.089 -860.429,562.854c-33.457,10.749 -32.227,-18.041 -24.392,-23.174c50.002,-32.761 358.78,-93.308 606.34,-295.854c90.043,-73.67 86.019,-75.951 167.282,-157.524c78.124,-78.423 95.482,-158.667 111.2,-86.302Z" style="fill:#1a1341;"/><ellipse cx="2787.122" cy="2143.097" rx="65.521" ry="66.274" style="fill:#1a1341;"/><ellipse cx="3261.089" cy="1810.026" rx="68.235" ry="65.092" style="fill:#1a1341;"/><ellipse cx="1978.561" cy="2546.165" rx="78.434" ry="77.581" style="fill:#1a1341;"/><path d="M1949.845,2612.593c-103.2,-54.013 -24.33,-159.62 43.813,-143.433c14.786,3.512 34.808,4.107 47.758,-0.576c65.943,-23.85 264.037,-170.537 250.374,-114.482c-2.125,8.72 -23.055,26.672 -36.102,34.97c-60.434,38.437 -170.275,94.731 -188.714,107.843c-40.542,28.828 19.996,137.667 -117.129,115.678Z" style="fill:#1a1341;"/><path d="M3827.624,943.498c-2.191,-31.136 -4.101,-46.533 25.378,-36.526c3.369,1.144 54.31,43.346 -25.378,36.526Z" style="fill:#e8e7be;"/><path d="M3376.377,1126.287c-25.8,-40.684 9.294,-44.287 9.294,-44.287c10.029,-3.05 40.516,29.704 -9.294,44.287Z" style="fill:#bac1a2;"/><path d="M3577.046,1278.404c-21.284,-86.24 34.417,-26.379 35.894,-23.291c13.679,28.581 -4.13,28.329 -35.894,23.291Z" style="fill:#bac0a4;"/><path d="M3175.489,1299.055c-10.467,-62.151 36.36,-24.746 39.194,-16.428c13.996,41.065 -36.109,17.857 -39.194,16.428Z" style="fill:#adb4a0;"/><path d="M2251.547,1082.601c-0.921,5.38 5,10.479 4.079,15.859c-6.021,35.163 -62.878,-4.876 -32.404,-22.593c14.277,-8.3 13.839,-0.996 28.325,6.734Z" style="fill:#e6eadd;"/><path d="M1980.508,1057.598c26.685,-20.295 25.89,-21.882 28.783,-21.89c26.003,-0.078 6.812,12.842 -10.541,48.87c-1.251,-9.197 0.021,-5.967 -0.721,-13.745c-2.633,-27.604 -14.613,-10.206 -17.522,-13.235Z" style="fill:#3f5c68;"/><path d="M1539.543,2115.79l17.364,-3.237c1.06,21.396 7.694,38.356 -10.721,26.893c0,0 -6.111,-21.764 -6.643,-23.657Z" style="fill:#435e72;"/><path d="M2011.879,2001.389c-0.264,1.64 -3.297,20.502 -3.297,20.502c-5.151,0.408 -8.945,-6.856 -14.096,-6.447c5.798,-4.685 11.596,-9.37 17.394,-14.055Z" style="fill:#9a9d95;"/><path d="M1554.07,2324.167c-0.855,1.495 -10.683,18.688 -10.683,18.688c-3.952,0.276 -5.866,-6.974 -9.818,-6.698c6.834,-3.997 13.667,-7.993 20.501,-11.99Z" style="fill:#8d9496;"/><path d="M10024.902,1211.018c-0.748,1.7 -9.352,21.246 -9.352,21.246c-4.999,-0.441 -5.885,-9.962 -10.885,-10.403c6.746,-3.615 13.491,-7.229 20.237,-10.844Z" style="fill:#1a1341;"/><path d="M8995.576,1210.41c-0.727,1.581 -9.091,19.769 -9.091,19.769c-4.535,-0.302 -5.535,-8.891 -10.07,-9.193c6.387,-3.525 12.774,-7.05 19.161,-10.576Z" style="fill:#1a1341;"/></svg>